<svg width="80" height="80" viewBox="0 0 80 80" xmlns="http://www.w3.org/2000/svg"><path fill-rule="evenodd" clip-rule="evenodd" d="M72.53 36.37c.02-.82.06-1.94-.02-2.23C71.81 18.52 57.45 6 39.8 6S7.69 18.52 6.99 34.14v3H72.5l.02-.77ZM39.8 9c15.96 0 29.12 11.22 29.72 25.14H9.98C10.68 20.22 23.84 9 39.8 9ZM23.24 48.86l-5.38-4-5.49 4L6 44.16l1.8-2.4 4.58 3.3 5.49-4 5.38 4 5.49-4 5.49 4 5.48-4 5.39 4 5.48-4 5.49 4 5.48-4 5.49 4 4.59-3.3 1.7 2.4-6.3 4.7-5.48-4-5.48 4-5.49-4-5.48 4-5.39-4-5.48 4-5.49-4-5.49 4ZM6.3 52.06H73.7c2.4 0 4.29 2.01 4.29 4.21v3.5c0 2.41-2 4.31-4.29 4.31h-1v1c0 5.41-4.38 9.92-9.87 9.92H17.16a9.92 9.92 0 0 1-9.87-9.91v-1h-1c-2.4 0-4.29-1.9-4.29-4.21v-3.5c0-2.31 1.9-4.31 4.29-4.31ZM62.94 72c3.79 0 6.88-3.1 6.88-6.91v-1H10.18v1c0 3.8 3.09 6.9 6.88 6.9h45.88Zm10.77-10.92c.7 0 1.3-.6 1.3-1.3h.1v-3.4c0-.7-.6-1.3-1.3-1.3H6.3c-.7 0-1.3.6-1.3 1.2v3.5c0 .7.6 1.3 1.3 1.3H73.7ZM41.9 21.62a2 2 0 1 1-4 .01 2 2 0 0 1 4 0Zm-9.98-3a2 2 0 1 0 0-4 2 2 0 0 0 0 4Zm17.95-2a2 2 0 1 1-4 0 2 2 0 0 1 4 0Z" fill="#81B3D2"/></svg>