<svg width="80" height="80" viewBox="0 0 80 80" xmlns="http://www.w3.org/2000/svg"><path fill-rule="evenodd" clip-rule="evenodd" d="M75.9 43.18 78 41.1l-9.94-9.84V4.4H54.2v13.12L40.45 4 3 41.2l2.1 2.08 7.84-7.76v37.6H9.02V76h64.16v-2.88h-5.12v-37.7l7.83 7.76ZM57.11 7.38h7.93v20.98l-7.93-7.85V7.38Zm7.93 65.64h-49.1V32.54l24.5-24.36 24.6 24.36v40.48Zm-31.93-4.48h16.06V44.77H33.12v23.77Zm13.05-2.88H36.03v-18h10.14v18ZM40.85 39.3a7.78 7.78 0 0 1-7.73-7.75 7.63 7.63 0 0 1 7.73-7.66 7.72 7.72 0 0 1 7.83 7.66 7.8 7.8 0 0 1-7.83 7.75Zm5.02-7.75a5.01 5.01 0 0 0-10.04 0 5.01 5.01 0 0 0 10.04 0ZM23.08 44.77h-3.01v3.88h3.01v-3.88Zm3.01 0h3.01v3.88h-3v-3.88Zm-3.01 5.97h-3.01v3.88h3.01v-3.88Zm3.01 0h3.01v3.88h-3v-3.88Zm29.12-5.97H52.2v3.88h3v-3.88Zm3.01 0h3.01v3.88h-3v-3.88Zm-3.01 5.97H52.2v3.88h3v-3.88Zm3.01 0h3.01v3.88h-3v-3.88Z" fill="#81B3D2"/></svg>