<svg width="80" height="80" viewBox="0 0 80 80" xmlns="http://www.w3.org/2000/svg"><path d="M69.2 25.12H44.8c13.6-6.8 14.7-11.1 14.2-13.5-1.1-3.9-5.6-6.9-9.8-5.3-5.5 2.1-7 10.3-8.5 16.2-1.9-6-3.7-13.6-8-17.5-1.2-1.1-3-2.2-5.7-2-4 .4-9.7 5.3-7.3 10.8 2.2 5.3 9.5 8.7 14.4 11.4H11.8a2.8 2.8 0 0 0-2.8 2.8v11.2c0 1.6 1.3 2.8 2.8 2.8h.3V78h57V42.01h.1c1.6 0 2.8-1.3 2.8-2.8v-11.2c0-1.6-1.3-2.9-2.8-2.9ZM50.8 8.82c2.1-.3 4.9 1.3 5.2 3.2.4 2.7-3.3 5.2-5 6.3-2.5 1.7-4.9 2.6-7.2 4 .8-3.7 2.5-12.9 7-13.5Zm-22.6 9.8c-2.2-1.5-6.4-4.4-6.3-7.7.1-3.6 5.7-6.5 8.7-3.8 3.8 3.3 5.6 11 7 16.4-3.2-1.6-6.2-2.8-9.4-4.9ZM34.1 75H15V42.01h19.1v33Zm0-35.99H12v-10.9h22.1v10.9Zm10 36H37V28.1h7.1v46.9Zm22 0h-19V42h19.1v33h-.1ZM69 39H47.1v-10.9H69v10.9Z" fill="#81B3D2"/></svg>